<mxfile host="app.diagrams.net" modified="2024-04-23T08:29:22.143Z" agent="Mozilla/5.0 (Windows NT 10.0; Win64; x64) AppleWebKit/537.36 (KHTML, like Gecko) Chrome/124.0.0.0 Safari/537.36" etag="Icb1eDlXga-gP1DeWQG6" version="24.2.8" type="device">
  <diagram name="Page-1" id="P8B8Qclp0PUQe0bR9hMs">
    <mxGraphModel dx="1134" dy="654" grid="1" gridSize="10" guides="1" tooltips="1" connect="1" arrows="1" fold="1" page="1" pageScale="1" pageWidth="827" pageHeight="1169" math="0" shadow="0">
      <root>
        <mxCell id="0" />
        <mxCell id="1" parent="0" />
        <mxCell id="50zjh5lBp7zg26SEbjsQ-48" style="edgeStyle=orthogonalEdgeStyle;rounded=0;orthogonalLoop=1;jettySize=auto;html=1;entryX=0.5;entryY=0;entryDx=0;entryDy=0;exitX=1;exitY=0.5;exitDx=0;exitDy=0;endArrow=none;endFill=0;" parent="1" source="50zjh5lBp7zg26SEbjsQ-1" target="50zjh5lBp7zg26SEbjsQ-47" edge="1">
          <mxGeometry relative="1" as="geometry" />
        </mxCell>
        <mxCell id="50zjh5lBp7zg26SEbjsQ-1" value="TEAM" style="whiteSpace=wrap;html=1;align=center;" parent="1" vertex="1">
          <mxGeometry x="520" y="690" width="100" height="40" as="geometry" />
        </mxCell>
        <mxCell id="50zjh5lBp7zg26SEbjsQ-32" style="edgeStyle=orthogonalEdgeStyle;rounded=0;orthogonalLoop=1;jettySize=auto;html=1;entryX=0.5;entryY=0;entryDx=0;entryDy=0;endArrow=none;endFill=0;" parent="1" source="50zjh5lBp7zg26SEbjsQ-2" target="50zjh5lBp7zg26SEbjsQ-29" edge="1">
          <mxGeometry relative="1" as="geometry" />
        </mxCell>
        <mxCell id="50zjh5lBp7zg26SEbjsQ-36" style="edgeStyle=orthogonalEdgeStyle;rounded=0;orthogonalLoop=1;jettySize=auto;html=1;entryX=0;entryY=0.5;entryDx=0;entryDy=0;endArrow=none;endFill=0;" parent="1" source="50zjh5lBp7zg26SEbjsQ-2" target="50zjh5lBp7zg26SEbjsQ-35" edge="1">
          <mxGeometry relative="1" as="geometry">
            <Array as="points">
              <mxPoint x="650" y="520" />
              <mxPoint x="650" y="585" />
            </Array>
          </mxGeometry>
        </mxCell>
        <mxCell id="50zjh5lBp7zg26SEbjsQ-2" value="PLAYER" style="whiteSpace=wrap;html=1;align=center;" parent="1" vertex="1">
          <mxGeometry x="520" y="500" width="100" height="40" as="geometry" />
        </mxCell>
        <mxCell id="50zjh5lBp7zg26SEbjsQ-43" style="edgeStyle=orthogonalEdgeStyle;rounded=0;orthogonalLoop=1;jettySize=auto;html=1;endArrow=none;endFill=0;" parent="1" source="50zjh5lBp7zg26SEbjsQ-3" target="50zjh5lBp7zg26SEbjsQ-42" edge="1">
          <mxGeometry relative="1" as="geometry" />
        </mxCell>
        <mxCell id="50zjh5lBp7zg26SEbjsQ-3" value="EVENT" style="whiteSpace=wrap;html=1;align=center;" parent="1" vertex="1">
          <mxGeometry x="710" y="680" width="100" height="40" as="geometry" />
        </mxCell>
        <mxCell id="50zjh5lBp7zg26SEbjsQ-4" value="MATCH" style="whiteSpace=wrap;html=1;align=center;" parent="1" vertex="1">
          <mxGeometry x="850" y="890" width="100" height="40" as="geometry" />
        </mxCell>
        <mxCell id="50zjh5lBp7zg26SEbjsQ-5" value="TOURNAMENT" style="whiteSpace=wrap;html=1;align=center;" parent="1" vertex="1">
          <mxGeometry x="520" y="890" width="100" height="40" as="geometry" />
        </mxCell>
        <mxCell id="50zjh5lBp7zg26SEbjsQ-9" value="" style="edgeStyle=orthogonalEdgeStyle;rounded=0;orthogonalLoop=1;jettySize=auto;html=1;endArrow=none;endFill=0;entryX=0;entryY=0.5;entryDx=0;entryDy=0;exitX=0.5;exitY=0;exitDx=0;exitDy=0;" parent="1" source="50zjh5lBp7zg26SEbjsQ-6" target="50zjh5lBp7zg26SEbjsQ-8" edge="1">
          <mxGeometry relative="1" as="geometry" />
        </mxCell>
        <mxCell id="50zjh5lBp7zg26SEbjsQ-14" style="edgeStyle=orthogonalEdgeStyle;rounded=0;orthogonalLoop=1;jettySize=auto;html=1;entryX=0;entryY=0.5;entryDx=0;entryDy=0;exitX=0.5;exitY=1;exitDx=0;exitDy=0;endArrow=none;endFill=0;" parent="1" source="50zjh5lBp7zg26SEbjsQ-6" target="50zjh5lBp7zg26SEbjsQ-13" edge="1">
          <mxGeometry relative="1" as="geometry" />
        </mxCell>
        <mxCell id="50zjh5lBp7zg26SEbjsQ-6" value="USER" style="whiteSpace=wrap;html=1;align=center;" parent="1" vertex="1">
          <mxGeometry x="220" y="795" width="100" height="40" as="geometry" />
        </mxCell>
        <mxCell id="50zjh5lBp7zg26SEbjsQ-10" style="edgeStyle=orthogonalEdgeStyle;rounded=0;orthogonalLoop=1;jettySize=auto;html=1;entryX=0;entryY=0.5;entryDx=0;entryDy=0;endArrow=none;endFill=0;" parent="1" source="50zjh5lBp7zg26SEbjsQ-8" target="50zjh5lBp7zg26SEbjsQ-1" edge="1">
          <mxGeometry relative="1" as="geometry" />
        </mxCell>
        <mxCell id="50zjh5lBp7zg26SEbjsQ-8" value="Creates_Team" style="shape=rhombus;perimeter=rhombusPerimeter;whiteSpace=wrap;html=1;align=center;" parent="1" vertex="1">
          <mxGeometry x="320" y="680" width="120" height="60" as="geometry" />
        </mxCell>
        <mxCell id="50zjh5lBp7zg26SEbjsQ-11" value="(0,N)" style="text;strokeColor=none;fillColor=none;spacingLeft=4;spacingRight=4;overflow=hidden;rotatable=0;points=[[0,0.5],[1,0.5]];portConstraint=eastwest;fontSize=12;whiteSpace=wrap;html=1;" parent="1" vertex="1">
          <mxGeometry x="270" y="760" width="40" height="30" as="geometry" />
        </mxCell>
        <mxCell id="50zjh5lBp7zg26SEbjsQ-12" value="(1,1)" style="text;strokeColor=none;fillColor=none;spacingLeft=4;spacingRight=4;overflow=hidden;rotatable=0;points=[[0,0.5],[1,0.5]];portConstraint=eastwest;fontSize=12;whiteSpace=wrap;html=1;" parent="1" vertex="1">
          <mxGeometry x="480" y="710" width="40" height="30" as="geometry" />
        </mxCell>
        <mxCell id="50zjh5lBp7zg26SEbjsQ-15" style="edgeStyle=orthogonalEdgeStyle;rounded=0;orthogonalLoop=1;jettySize=auto;html=1;entryX=0;entryY=0.5;entryDx=0;entryDy=0;endArrow=none;endFill=0;" parent="1" source="50zjh5lBp7zg26SEbjsQ-13" target="50zjh5lBp7zg26SEbjsQ-5" edge="1">
          <mxGeometry relative="1" as="geometry" />
        </mxCell>
        <mxCell id="50zjh5lBp7zg26SEbjsQ-13" value="Creates_Tour" style="shape=rhombus;perimeter=rhombusPerimeter;whiteSpace=wrap;html=1;align=center;" parent="1" vertex="1">
          <mxGeometry x="340" y="880" width="120" height="60" as="geometry" />
        </mxCell>
        <mxCell id="50zjh5lBp7zg26SEbjsQ-16" value="(1,1)" style="text;strokeColor=none;fillColor=none;spacingLeft=4;spacingRight=4;overflow=hidden;rotatable=0;points=[[0,0.5],[1,0.5]];portConstraint=eastwest;fontSize=12;whiteSpace=wrap;html=1;" parent="1" vertex="1">
          <mxGeometry x="480" y="880" width="40" height="30" as="geometry" />
        </mxCell>
        <mxCell id="50zjh5lBp7zg26SEbjsQ-17" value="(0,N)" style="text;strokeColor=none;fillColor=none;spacingLeft=4;spacingRight=4;overflow=hidden;rotatable=0;points=[[0,0.5],[1,0.5]];portConstraint=eastwest;fontSize=12;whiteSpace=wrap;html=1;" parent="1" vertex="1">
          <mxGeometry x="270" y="840" width="40" height="30" as="geometry" />
        </mxCell>
        <mxCell id="50zjh5lBp7zg26SEbjsQ-21" style="edgeStyle=orthogonalEdgeStyle;rounded=0;orthogonalLoop=1;jettySize=auto;html=1;exitX=0;exitY=0.5;exitDx=0;exitDy=0;entryX=1;entryY=0.5;entryDx=0;entryDy=0;endArrow=none;endFill=0;" parent="1" source="50zjh5lBp7zg26SEbjsQ-18" target="50zjh5lBp7zg26SEbjsQ-5" edge="1">
          <mxGeometry relative="1" as="geometry">
            <Array as="points">
              <mxPoint x="660" y="960" />
              <mxPoint x="660" y="910" />
            </Array>
          </mxGeometry>
        </mxCell>
        <mxCell id="50zjh5lBp7zg26SEbjsQ-41" style="edgeStyle=orthogonalEdgeStyle;rounded=0;orthogonalLoop=1;jettySize=auto;html=1;entryX=0.5;entryY=1;entryDx=0;entryDy=0;endArrow=none;endFill=0;exitX=1;exitY=0.5;exitDx=0;exitDy=0;" parent="1" source="50zjh5lBp7zg26SEbjsQ-18" target="50zjh5lBp7zg26SEbjsQ-4" edge="1">
          <mxGeometry relative="1" as="geometry">
            <Array as="points">
              <mxPoint x="900" y="960" />
            </Array>
          </mxGeometry>
        </mxCell>
        <mxCell id="50zjh5lBp7zg26SEbjsQ-18" value="Has_Match" style="shape=rhombus;perimeter=rhombusPerimeter;whiteSpace=wrap;html=1;align=center;" parent="1" vertex="1">
          <mxGeometry x="680" y="930" width="120" height="60" as="geometry" />
        </mxCell>
        <mxCell id="50zjh5lBp7zg26SEbjsQ-22" value="(0,N)" style="text;strokeColor=none;fillColor=none;spacingLeft=4;spacingRight=4;overflow=hidden;rotatable=0;points=[[0,0.5],[1,0.5]];portConstraint=eastwest;fontSize=12;whiteSpace=wrap;html=1;" parent="1" vertex="1">
          <mxGeometry x="620" y="880" width="40" height="30" as="geometry" />
        </mxCell>
        <mxCell id="50zjh5lBp7zg26SEbjsQ-23" value="(1,1)" style="text;strokeColor=none;fillColor=none;spacingLeft=4;spacingRight=4;overflow=hidden;rotatable=0;points=[[0,0.5],[1,0.5]];portConstraint=eastwest;fontSize=12;whiteSpace=wrap;html=1;" parent="1" vertex="1">
          <mxGeometry x="860" y="930" width="40" height="30" as="geometry" />
        </mxCell>
        <mxCell id="50zjh5lBp7zg26SEbjsQ-25" style="edgeStyle=orthogonalEdgeStyle;rounded=0;orthogonalLoop=1;jettySize=auto;html=1;entryX=0.5;entryY=0;entryDx=0;entryDy=0;endArrow=none;endFill=0;" parent="1" source="50zjh5lBp7zg26SEbjsQ-24" target="50zjh5lBp7zg26SEbjsQ-5" edge="1">
          <mxGeometry relative="1" as="geometry" />
        </mxCell>
        <mxCell id="50zjh5lBp7zg26SEbjsQ-26" style="edgeStyle=orthogonalEdgeStyle;rounded=0;orthogonalLoop=1;jettySize=auto;html=1;entryX=0.5;entryY=1;entryDx=0;entryDy=0;endArrow=none;endFill=0;" parent="1" source="50zjh5lBp7zg26SEbjsQ-24" target="50zjh5lBp7zg26SEbjsQ-1" edge="1">
          <mxGeometry relative="1" as="geometry">
            <mxPoint x="570" y="740" as="targetPoint" />
            <Array as="points">
              <mxPoint x="510" y="760" />
              <mxPoint x="570" y="760" />
            </Array>
          </mxGeometry>
        </mxCell>
        <mxCell id="50zjh5lBp7zg26SEbjsQ-24" value="Has_Team" style="shape=rhombus;perimeter=rhombusPerimeter;whiteSpace=wrap;html=1;align=center;" parent="1" vertex="1">
          <mxGeometry x="450" y="775" width="120" height="60" as="geometry" />
        </mxCell>
        <mxCell id="50zjh5lBp7zg26SEbjsQ-27" value="(1,1)" style="text;strokeColor=none;fillColor=none;spacingLeft=4;spacingRight=4;overflow=hidden;rotatable=0;points=[[0,0.5],[1,0.5]];portConstraint=eastwest;fontSize=12;whiteSpace=wrap;html=1;" parent="1" vertex="1">
          <mxGeometry x="530" y="730" width="40" height="30" as="geometry" />
        </mxCell>
        <mxCell id="50zjh5lBp7zg26SEbjsQ-28" value="(0,N)" style="text;strokeColor=none;fillColor=none;spacingLeft=4;spacingRight=4;overflow=hidden;rotatable=0;points=[[0,0.5],[1,0.5]];portConstraint=eastwest;fontSize=12;whiteSpace=wrap;html=1;" parent="1" vertex="1">
          <mxGeometry x="570" y="860" width="40" height="30" as="geometry" />
        </mxCell>
        <mxCell id="50zjh5lBp7zg26SEbjsQ-31" style="edgeStyle=orthogonalEdgeStyle;rounded=0;orthogonalLoop=1;jettySize=auto;html=1;entryX=0.5;entryY=0;entryDx=0;entryDy=0;endArrow=none;endFill=0;" parent="1" source="50zjh5lBp7zg26SEbjsQ-29" target="50zjh5lBp7zg26SEbjsQ-1" edge="1">
          <mxGeometry relative="1" as="geometry" />
        </mxCell>
        <mxCell id="50zjh5lBp7zg26SEbjsQ-29" value="Belongs" style="shape=rhombus;perimeter=rhombusPerimeter;whiteSpace=wrap;html=1;align=center;" parent="1" vertex="1">
          <mxGeometry x="510" y="585" width="120" height="60" as="geometry" />
        </mxCell>
        <mxCell id="50zjh5lBp7zg26SEbjsQ-33" value="(1,1)" style="text;strokeColor=none;fillColor=none;spacingLeft=4;spacingRight=4;overflow=hidden;rotatable=0;points=[[0,0.5],[1,0.5]];portConstraint=eastwest;fontSize=12;whiteSpace=wrap;html=1;" parent="1" vertex="1">
          <mxGeometry x="570" y="540" width="40" height="30" as="geometry" />
        </mxCell>
        <mxCell id="50zjh5lBp7zg26SEbjsQ-34" value="(0,N)" style="text;strokeColor=none;fillColor=none;spacingLeft=4;spacingRight=4;overflow=hidden;rotatable=0;points=[[0,0.5],[1,0.5]];portConstraint=eastwest;fontSize=12;whiteSpace=wrap;html=1;" parent="1" vertex="1">
          <mxGeometry x="570" y="660" width="40" height="30" as="geometry" />
        </mxCell>
        <mxCell id="50zjh5lBp7zg26SEbjsQ-38" style="edgeStyle=orthogonalEdgeStyle;rounded=0;orthogonalLoop=1;jettySize=auto;html=1;exitX=0.5;exitY=1;exitDx=0;exitDy=0;entryX=0.5;entryY=0;entryDx=0;entryDy=0;endArrow=none;endFill=0;" parent="1" source="50zjh5lBp7zg26SEbjsQ-35" target="50zjh5lBp7zg26SEbjsQ-3" edge="1">
          <mxGeometry relative="1" as="geometry" />
        </mxCell>
        <mxCell id="50zjh5lBp7zg26SEbjsQ-35" value="Associated_P" style="shape=rhombus;perimeter=rhombusPerimeter;whiteSpace=wrap;html=1;align=center;" parent="1" vertex="1">
          <mxGeometry x="700" y="555" width="120" height="60" as="geometry" />
        </mxCell>
        <mxCell id="50zjh5lBp7zg26SEbjsQ-37" value="(0,N)" style="text;strokeColor=none;fillColor=none;spacingLeft=4;spacingRight=4;overflow=hidden;rotatable=0;points=[[0,0.5],[1,0.5]];portConstraint=eastwest;fontSize=12;whiteSpace=wrap;html=1;" parent="1" vertex="1">
          <mxGeometry x="620" y="490" width="40" height="30" as="geometry" />
        </mxCell>
        <mxCell id="50zjh5lBp7zg26SEbjsQ-39" value="(1,1)" style="text;strokeColor=none;fillColor=none;spacingLeft=4;spacingRight=4;overflow=hidden;rotatable=0;points=[[0,0.5],[1,0.5]];portConstraint=eastwest;fontSize=12;whiteSpace=wrap;html=1;" parent="1" vertex="1">
          <mxGeometry x="760" y="650" width="40" height="30" as="geometry" />
        </mxCell>
        <mxCell id="50zjh5lBp7zg26SEbjsQ-44" style="edgeStyle=orthogonalEdgeStyle;rounded=0;orthogonalLoop=1;jettySize=auto;html=1;entryX=0.5;entryY=0;entryDx=0;entryDy=0;endArrow=none;endFill=0;" parent="1" source="50zjh5lBp7zg26SEbjsQ-42" target="50zjh5lBp7zg26SEbjsQ-4" edge="1">
          <mxGeometry relative="1" as="geometry" />
        </mxCell>
        <mxCell id="50zjh5lBp7zg26SEbjsQ-42" value="Associated_M" style="shape=rhombus;perimeter=rhombusPerimeter;whiteSpace=wrap;html=1;align=center;" parent="1" vertex="1">
          <mxGeometry x="750" y="775" width="120" height="60" as="geometry" />
        </mxCell>
        <mxCell id="50zjh5lBp7zg26SEbjsQ-45" value="(1,1)" style="text;strokeColor=none;fillColor=none;spacingLeft=4;spacingRight=4;overflow=hidden;rotatable=0;points=[[0,0.5],[1,0.5]];portConstraint=eastwest;fontSize=12;whiteSpace=wrap;html=1;" parent="1" vertex="1">
          <mxGeometry x="760" y="720" width="40" height="30" as="geometry" />
        </mxCell>
        <mxCell id="50zjh5lBp7zg26SEbjsQ-46" value="(0,N)" style="text;strokeColor=none;fillColor=none;spacingLeft=4;spacingRight=4;overflow=hidden;rotatable=0;points=[[0,0.5],[1,0.5]];portConstraint=eastwest;fontSize=12;whiteSpace=wrap;html=1;" parent="1" vertex="1">
          <mxGeometry x="900" y="860" width="40" height="30" as="geometry" />
        </mxCell>
        <mxCell id="50zjh5lBp7zg26SEbjsQ-55" style="edgeStyle=orthogonalEdgeStyle;rounded=0;orthogonalLoop=1;jettySize=auto;html=1;entryX=0;entryY=0.5;entryDx=0;entryDy=0;exitX=0.5;exitY=1;exitDx=0;exitDy=0;endArrow=none;endFill=0;" parent="1" source="50zjh5lBp7zg26SEbjsQ-47" target="50zjh5lBp7zg26SEbjsQ-4" edge="1">
          <mxGeometry relative="1" as="geometry" />
        </mxCell>
        <mxCell id="50zjh5lBp7zg26SEbjsQ-47" value="Plays" style="shape=rhombus;perimeter=rhombusPerimeter;whiteSpace=wrap;html=1;align=center;" parent="1" vertex="1">
          <mxGeometry x="620" y="790" width="120" height="60" as="geometry" />
        </mxCell>
        <mxCell id="50zjh5lBp7zg26SEbjsQ-51" value="(0,N)" style="text;strokeColor=none;fillColor=none;spacingLeft=4;spacingRight=4;overflow=hidden;rotatable=0;points=[[0,0.5],[1,0.5]];portConstraint=eastwest;fontSize=12;whiteSpace=wrap;html=1;" parent="1" vertex="1">
          <mxGeometry x="620" y="685" width="40" height="30" as="geometry" />
        </mxCell>
        <mxCell id="50zjh5lBp7zg26SEbjsQ-56" value="(0,N)" style="text;strokeColor=none;fillColor=none;spacingLeft=4;spacingRight=4;overflow=hidden;rotatable=0;points=[[0,0.5],[1,0.5]];portConstraint=eastwest;fontSize=12;whiteSpace=wrap;html=1;" parent="1" vertex="1">
          <mxGeometry x="800" y="880" width="40" height="30" as="geometry" />
        </mxCell>
        <mxCell id="m9i3XkskpPUT0IzI7ZGU-13" style="edgeStyle=orthogonalEdgeStyle;rounded=0;orthogonalLoop=1;jettySize=auto;html=1;endArrow=none;endFill=0;entryX=0.903;entryY=0;entryDx=0;entryDy=0;entryPerimeter=0;exitX=0.436;exitY=0.937;exitDx=0;exitDy=0;exitPerimeter=0;" edge="1" parent="1" source="m9i3XkskpPUT0IzI7ZGU-1" target="50zjh5lBp7zg26SEbjsQ-4">
          <mxGeometry relative="1" as="geometry">
            <mxPoint x="940" y="850" as="sourcePoint" />
            <Array as="points">
              <mxPoint x="940" y="844" />
              <mxPoint x="940" y="868" />
              <mxPoint x="940" y="868" />
            </Array>
          </mxGeometry>
        </mxCell>
        <mxCell id="m9i3XkskpPUT0IzI7ZGU-1" value="&lt;u&gt;id&lt;/u&gt;" style="ellipse;whiteSpace=wrap;html=1;" vertex="1" parent="1">
          <mxGeometry x="920" y="825" width="50" height="20" as="geometry" />
        </mxCell>
        <mxCell id="m9i3XkskpPUT0IzI7ZGU-14" style="edgeStyle=orthogonalEdgeStyle;rounded=0;orthogonalLoop=1;jettySize=auto;html=1;endArrow=none;endFill=0;" edge="1" parent="1" source="m9i3XkskpPUT0IzI7ZGU-2" target="50zjh5lBp7zg26SEbjsQ-3">
          <mxGeometry relative="1" as="geometry">
            <Array as="points">
              <mxPoint x="800" y="640" />
            </Array>
          </mxGeometry>
        </mxCell>
        <mxCell id="m9i3XkskpPUT0IzI7ZGU-2" value="&lt;u&gt;id&lt;/u&gt;" style="ellipse;whiteSpace=wrap;html=1;" vertex="1" parent="1">
          <mxGeometry x="820" y="630" width="50" height="20" as="geometry" />
        </mxCell>
        <mxCell id="m9i3XkskpPUT0IzI7ZGU-3" value="&lt;u&gt;id&lt;/u&gt;" style="ellipse;whiteSpace=wrap;html=1;" vertex="1" parent="1">
          <mxGeometry x="630" y="640" width="50" height="20" as="geometry" />
        </mxCell>
        <mxCell id="m9i3XkskpPUT0IzI7ZGU-9" style="edgeStyle=orthogonalEdgeStyle;rounded=0;orthogonalLoop=1;jettySize=auto;html=1;entryX=0;entryY=0.75;entryDx=0;entryDy=0;endArrow=none;endFill=0;exitX=1;exitY=0.5;exitDx=0;exitDy=0;" edge="1" parent="1" source="m9i3XkskpPUT0IzI7ZGU-4" target="50zjh5lBp7zg26SEbjsQ-5">
          <mxGeometry relative="1" as="geometry">
            <Array as="points">
              <mxPoint x="500" y="920" />
            </Array>
          </mxGeometry>
        </mxCell>
        <mxCell id="m9i3XkskpPUT0IzI7ZGU-4" value="&lt;u&gt;id&lt;/u&gt;" style="ellipse;whiteSpace=wrap;html=1;" vertex="1" parent="1">
          <mxGeometry x="450" y="920" width="50" height="20" as="geometry" />
        </mxCell>
        <mxCell id="m9i3XkskpPUT0IzI7ZGU-5" value="&lt;u&gt;id&lt;/u&gt;" style="ellipse;whiteSpace=wrap;html=1;" vertex="1" parent="1">
          <mxGeometry x="210" y="755" width="50" height="20" as="geometry" />
        </mxCell>
        <mxCell id="m9i3XkskpPUT0IzI7ZGU-7" style="edgeStyle=orthogonalEdgeStyle;rounded=0;orthogonalLoop=1;jettySize=auto;html=1;entryX=0.25;entryY=0;entryDx=0;entryDy=0;endArrow=none;endFill=0;" edge="1" parent="1" source="m9i3XkskpPUT0IzI7ZGU-6" target="50zjh5lBp7zg26SEbjsQ-2">
          <mxGeometry relative="1" as="geometry" />
        </mxCell>
        <mxCell id="m9i3XkskpPUT0IzI7ZGU-6" value="&lt;u&gt;id&lt;/u&gt;" style="ellipse;whiteSpace=wrap;html=1;" vertex="1" parent="1">
          <mxGeometry x="520" y="420" width="50" height="20" as="geometry" />
        </mxCell>
        <mxCell id="m9i3XkskpPUT0IzI7ZGU-8" style="edgeStyle=orthogonalEdgeStyle;rounded=0;orthogonalLoop=1;jettySize=auto;html=1;entryX=0.25;entryY=0;entryDx=0;entryDy=0;endArrow=none;endFill=0;" edge="1" parent="1" source="m9i3XkskpPUT0IzI7ZGU-5" target="50zjh5lBp7zg26SEbjsQ-6">
          <mxGeometry relative="1" as="geometry">
            <Array as="points">
              <mxPoint x="235" y="795" />
            </Array>
          </mxGeometry>
        </mxCell>
        <mxCell id="m9i3XkskpPUT0IzI7ZGU-11" style="edgeStyle=orthogonalEdgeStyle;rounded=0;orthogonalLoop=1;jettySize=auto;html=1;endArrow=none;endFill=0;entryX=1.007;entryY=1.002;entryDx=0;entryDy=0;entryPerimeter=0;" edge="1" parent="1" source="m9i3XkskpPUT0IzI7ZGU-3" target="50zjh5lBp7zg26SEbjsQ-34">
          <mxGeometry relative="1" as="geometry">
            <Array as="points">
              <mxPoint x="610" y="650" />
              <mxPoint x="610" y="690" />
            </Array>
          </mxGeometry>
        </mxCell>
        <mxCell id="m9i3XkskpPUT0IzI7ZGU-18" style="edgeStyle=orthogonalEdgeStyle;rounded=0;orthogonalLoop=1;jettySize=auto;html=1;entryX=0.25;entryY=1;entryDx=0;entryDy=0;endArrow=none;endFill=0;" edge="1" parent="1" source="m9i3XkskpPUT0IzI7ZGU-15" target="50zjh5lBp7zg26SEbjsQ-6">
          <mxGeometry relative="1" as="geometry">
            <Array as="points">
              <mxPoint x="190" y="850" />
              <mxPoint x="245" y="850" />
            </Array>
          </mxGeometry>
        </mxCell>
        <mxCell id="m9i3XkskpPUT0IzI7ZGU-15" value="password" style="ellipse;whiteSpace=wrap;html=1;" vertex="1" parent="1">
          <mxGeometry x="160" y="860" width="60" height="30" as="geometry" />
        </mxCell>
        <mxCell id="m9i3XkskpPUT0IzI7ZGU-17" style="edgeStyle=orthogonalEdgeStyle;rounded=0;orthogonalLoop=1;jettySize=auto;html=1;entryX=0;entryY=0.5;entryDx=0;entryDy=0;endArrow=none;endFill=0;" edge="1" parent="1" source="m9i3XkskpPUT0IzI7ZGU-16" target="50zjh5lBp7zg26SEbjsQ-6">
          <mxGeometry relative="1" as="geometry" />
        </mxCell>
        <mxCell id="m9i3XkskpPUT0IzI7ZGU-16" value="email" style="ellipse;whiteSpace=wrap;html=1;" vertex="1" parent="1">
          <mxGeometry x="130" y="805" width="50" height="20" as="geometry" />
        </mxCell>
        <mxCell id="m9i3XkskpPUT0IzI7ZGU-19" value="name" style="ellipse;whiteSpace=wrap;html=1;" vertex="1" parent="1">
          <mxGeometry x="440" y="950" width="50" height="20" as="geometry" />
        </mxCell>
        <mxCell id="m9i3XkskpPUT0IzI7ZGU-20" value="token" style="ellipse;whiteSpace=wrap;html=1;" vertex="1" parent="1">
          <mxGeometry x="470" y="980" width="50" height="20" as="geometry" />
        </mxCell>
        <mxCell id="m9i3XkskpPUT0IzI7ZGU-21" value="deadline" style="ellipse;whiteSpace=wrap;html=1;" vertex="1" parent="1">
          <mxGeometry x="620" y="1125" width="50" height="20" as="geometry" />
        </mxCell>
        <mxCell id="m9i3XkskpPUT0IzI7ZGU-22" value="max_players" style="ellipse;whiteSpace=wrap;html=1;" vertex="1" parent="1">
          <mxGeometry x="460" y="1020" width="80" height="30" as="geometry" />
        </mxCell>
        <mxCell id="m9i3XkskpPUT0IzI7ZGU-34" style="edgeStyle=orthogonalEdgeStyle;rounded=0;orthogonalLoop=1;jettySize=auto;html=1;entryX=0.25;entryY=1;entryDx=0;entryDy=0;endArrow=none;endFill=0;exitX=0.715;exitY=0.047;exitDx=0;exitDy=0;exitPerimeter=0;" edge="1" parent="1" source="m9i3XkskpPUT0IzI7ZGU-23" target="50zjh5lBp7zg26SEbjsQ-5">
          <mxGeometry relative="1" as="geometry">
            <Array as="points">
              <mxPoint x="530" y="1060" />
              <mxPoint x="530" y="1060" />
              <mxPoint x="530" y="1050" />
              <mxPoint x="550" y="1050" />
              <mxPoint x="550" y="930" />
            </Array>
          </mxGeometry>
        </mxCell>
        <mxCell id="m9i3XkskpPUT0IzI7ZGU-23" value="min_players" style="ellipse;whiteSpace=wrap;html=1;" vertex="1" parent="1">
          <mxGeometry x="480" y="1060" width="70" height="30" as="geometry" />
        </mxCell>
        <mxCell id="m9i3XkskpPUT0IzI7ZGU-24" value="max_teams" style="ellipse;whiteSpace=wrap;html=1;" vertex="1" parent="1">
          <mxGeometry x="700" y="1000" width="80" height="30" as="geometry" />
        </mxCell>
        <mxCell id="m9i3XkskpPUT0IzI7ZGU-25" value="starting_players" style="ellipse;whiteSpace=wrap;html=1;" vertex="1" parent="1">
          <mxGeometry x="720" y="1050" width="90" height="30" as="geometry" />
        </mxCell>
        <mxCell id="m9i3XkskpPUT0IzI7ZGU-26" value="max_subs" style="ellipse;whiteSpace=wrap;html=1;" vertex="1" parent="1">
          <mxGeometry x="520" y="1095" width="80" height="30" as="geometry" />
        </mxCell>
        <mxCell id="m9i3XkskpPUT0IzI7ZGU-27" value="logo" style="ellipse;whiteSpace=wrap;html=1;" vertex="1" parent="1">
          <mxGeometry x="670" y="1139" width="50" height="20" as="geometry" />
        </mxCell>
        <mxCell id="m9i3XkskpPUT0IzI7ZGU-39" style="edgeStyle=orthogonalEdgeStyle;rounded=0;orthogonalLoop=1;jettySize=auto;html=1;entryX=0.75;entryY=1;entryDx=0;entryDy=0;endArrow=none;endFill=0;exitX=0.384;exitY=0.062;exitDx=0;exitDy=0;exitPerimeter=0;" edge="1" parent="1" source="m9i3XkskpPUT0IzI7ZGU-28" target="50zjh5lBp7zg26SEbjsQ-5">
          <mxGeometry relative="1" as="geometry">
            <Array as="points">
              <mxPoint x="733" y="1159" />
              <mxPoint x="730" y="1159" />
              <mxPoint x="730" y="1130" />
              <mxPoint x="700" y="1130" />
              <mxPoint x="700" y="1100" />
              <mxPoint x="650" y="1100" />
              <mxPoint x="650" y="1000" />
              <mxPoint x="595" y="1000" />
            </Array>
          </mxGeometry>
        </mxCell>
        <mxCell id="m9i3XkskpPUT0IzI7ZGU-28" value="start_date" style="ellipse;whiteSpace=wrap;html=1;" vertex="1" parent="1">
          <mxGeometry x="710" y="1159" width="60" height="30" as="geometry" />
        </mxCell>
        <mxCell id="m9i3XkskpPUT0IzI7ZGU-29" value="creation_date" style="ellipse;whiteSpace=wrap;html=1;" vertex="1" parent="1">
          <mxGeometry x="725" y="1085" width="80" height="30" as="geometry" />
        </mxCell>
        <mxCell id="m9i3XkskpPUT0IzI7ZGU-30" value="is_finished" style="ellipse;whiteSpace=wrap;html=1;" vertex="1" parent="1">
          <mxGeometry x="555" y="1139" width="70" height="25" as="geometry" />
        </mxCell>
        <mxCell id="m9i3XkskpPUT0IzI7ZGU-31" style="edgeStyle=orthogonalEdgeStyle;rounded=0;orthogonalLoop=1;jettySize=auto;html=1;endArrow=none;endFill=0;entryX=0.002;entryY=0.915;entryDx=0;entryDy=0;entryPerimeter=0;" edge="1" parent="1" source="m9i3XkskpPUT0IzI7ZGU-19" target="50zjh5lBp7zg26SEbjsQ-5">
          <mxGeometry relative="1" as="geometry">
            <Array as="points">
              <mxPoint x="510" y="960" />
              <mxPoint x="510" y="927" />
            </Array>
          </mxGeometry>
        </mxCell>
        <mxCell id="m9i3XkskpPUT0IzI7ZGU-32" style="edgeStyle=orthogonalEdgeStyle;rounded=0;orthogonalLoop=1;jettySize=auto;html=1;entryX=0.058;entryY=0.992;entryDx=0;entryDy=0;entryPerimeter=0;endArrow=none;endFill=0;exitX=0.545;exitY=0.017;exitDx=0;exitDy=0;exitPerimeter=0;" edge="1" parent="1" source="m9i3XkskpPUT0IzI7ZGU-20" target="50zjh5lBp7zg26SEbjsQ-5">
          <mxGeometry relative="1" as="geometry">
            <Array as="points">
              <mxPoint x="497" y="970" />
              <mxPoint x="526" y="970" />
              <mxPoint x="526" y="960" />
              <mxPoint x="526" y="960" />
            </Array>
          </mxGeometry>
        </mxCell>
        <mxCell id="m9i3XkskpPUT0IzI7ZGU-33" style="edgeStyle=orthogonalEdgeStyle;rounded=0;orthogonalLoop=1;jettySize=auto;html=1;entryX=0.167;entryY=1.035;entryDx=0;entryDy=0;entryPerimeter=0;endArrow=none;endFill=0;exitX=0.5;exitY=0;exitDx=0;exitDy=0;" edge="1" parent="1" source="m9i3XkskpPUT0IzI7ZGU-22" target="50zjh5lBp7zg26SEbjsQ-5">
          <mxGeometry relative="1" as="geometry">
            <Array as="points">
              <mxPoint x="500" y="1010" />
              <mxPoint x="530" y="1010" />
              <mxPoint x="530" y="975" />
              <mxPoint x="537" y="975" />
            </Array>
          </mxGeometry>
        </mxCell>
        <mxCell id="m9i3XkskpPUT0IzI7ZGU-35" style="edgeStyle=orthogonalEdgeStyle;rounded=0;orthogonalLoop=1;jettySize=auto;html=1;exitX=0.5;exitY=0;exitDx=0;exitDy=0;entryX=0.353;entryY=1.008;entryDx=0;entryDy=0;entryPerimeter=0;endArrow=none;endFill=0;" edge="1" parent="1" source="m9i3XkskpPUT0IzI7ZGU-26" target="50zjh5lBp7zg26SEbjsQ-5">
          <mxGeometry relative="1" as="geometry">
            <Array as="points">
              <mxPoint x="560" y="1013" />
              <mxPoint x="555" y="1013" />
            </Array>
          </mxGeometry>
        </mxCell>
        <mxCell id="m9i3XkskpPUT0IzI7ZGU-36" style="edgeStyle=orthogonalEdgeStyle;rounded=0;orthogonalLoop=1;jettySize=auto;html=1;exitX=0.5;exitY=0;exitDx=0;exitDy=0;entryX=0.451;entryY=1.022;entryDx=0;entryDy=0;entryPerimeter=0;endArrow=none;endFill=0;" edge="1" parent="1" source="m9i3XkskpPUT0IzI7ZGU-30" target="50zjh5lBp7zg26SEbjsQ-5">
          <mxGeometry relative="1" as="geometry">
            <Array as="points">
              <mxPoint x="590" y="1130" />
              <mxPoint x="610" y="1130" />
              <mxPoint x="610" y="1035" />
              <mxPoint x="565" y="1035" />
            </Array>
          </mxGeometry>
        </mxCell>
        <mxCell id="m9i3XkskpPUT0IzI7ZGU-37" style="edgeStyle=orthogonalEdgeStyle;rounded=0;orthogonalLoop=1;jettySize=auto;html=1;entryX=0.556;entryY=1.002;entryDx=0;entryDy=0;entryPerimeter=0;endArrow=none;endFill=0;exitX=0.401;exitY=0.02;exitDx=0;exitDy=0;exitPerimeter=0;" edge="1" parent="1" source="m9i3XkskpPUT0IzI7ZGU-21" target="50zjh5lBp7zg26SEbjsQ-5">
          <mxGeometry relative="1" as="geometry">
            <mxPoint x="640" y="1120" as="sourcePoint" />
            <Array as="points">
              <mxPoint x="640" y="1120" />
              <mxPoint x="630" y="1120" />
              <mxPoint x="630" y="1025" />
              <mxPoint x="576" y="1025" />
            </Array>
          </mxGeometry>
        </mxCell>
        <mxCell id="m9i3XkskpPUT0IzI7ZGU-38" style="edgeStyle=orthogonalEdgeStyle;rounded=0;orthogonalLoop=1;jettySize=auto;html=1;entryX=0.644;entryY=0.988;entryDx=0;entryDy=0;entryPerimeter=0;endArrow=none;endFill=0;exitX=0.304;exitY=0.022;exitDx=0;exitDy=0;exitPerimeter=0;" edge="1" parent="1" source="m9i3XkskpPUT0IzI7ZGU-27" target="50zjh5lBp7zg26SEbjsQ-5">
          <mxGeometry relative="1" as="geometry">
            <Array as="points">
              <mxPoint x="685" y="1110" />
              <mxPoint x="640" y="1110" />
              <mxPoint x="640" y="1010" />
              <mxPoint x="584" y="1010" />
            </Array>
          </mxGeometry>
        </mxCell>
        <mxCell id="m9i3XkskpPUT0IzI7ZGU-40" style="edgeStyle=orthogonalEdgeStyle;rounded=0;orthogonalLoop=1;jettySize=auto;html=1;entryX=0.814;entryY=1.001;entryDx=0;entryDy=0;entryPerimeter=0;endArrow=none;endFill=0;exitX=0;exitY=0.5;exitDx=0;exitDy=0;" edge="1" parent="1" source="m9i3XkskpPUT0IzI7ZGU-29" target="50zjh5lBp7zg26SEbjsQ-5">
          <mxGeometry relative="1" as="geometry">
            <Array as="points">
              <mxPoint x="710" y="1100" />
              <mxPoint x="710" y="1090" />
              <mxPoint x="660" y="1090" />
              <mxPoint x="660" y="990" />
              <mxPoint x="601" y="990" />
            </Array>
          </mxGeometry>
        </mxCell>
        <mxCell id="m9i3XkskpPUT0IzI7ZGU-41" style="edgeStyle=orthogonalEdgeStyle;rounded=0;orthogonalLoop=1;jettySize=auto;html=1;exitX=0;exitY=0.5;exitDx=0;exitDy=0;endArrow=none;endFill=0;" edge="1" parent="1" source="m9i3XkskpPUT0IzI7ZGU-25">
          <mxGeometry relative="1" as="geometry">
            <mxPoint x="605" y="930" as="targetPoint" />
            <Array as="points">
              <mxPoint x="670" y="1065" />
              <mxPoint x="670" y="980" />
              <mxPoint x="605" y="980" />
            </Array>
          </mxGeometry>
        </mxCell>
        <mxCell id="m9i3XkskpPUT0IzI7ZGU-42" style="edgeStyle=orthogonalEdgeStyle;rounded=0;orthogonalLoop=1;jettySize=auto;html=1;endArrow=none;endFill=0;" edge="1" parent="1" source="m9i3XkskpPUT0IzI7ZGU-24">
          <mxGeometry relative="1" as="geometry">
            <mxPoint x="614" y="930" as="targetPoint" />
            <Array as="points">
              <mxPoint x="680" y="1015" />
              <mxPoint x="680" y="970" />
              <mxPoint x="614" y="970" />
            </Array>
          </mxGeometry>
        </mxCell>
        <mxCell id="m9i3XkskpPUT0IzI7ZGU-51" style="edgeStyle=orthogonalEdgeStyle;rounded=0;orthogonalLoop=1;jettySize=auto;html=1;entryX=1.008;entryY=0.103;entryDx=0;entryDy=0;endArrow=none;endFill=0;exitX=0;exitY=0.5;exitDx=0;exitDy=0;entryPerimeter=0;" edge="1" parent="1" source="m9i3XkskpPUT0IzI7ZGU-45" target="50zjh5lBp7zg26SEbjsQ-4">
          <mxGeometry relative="1" as="geometry">
            <Array as="points">
              <mxPoint x="980" y="848" />
              <mxPoint x="980" y="860" />
              <mxPoint x="960" y="860" />
              <mxPoint x="960" y="894" />
            </Array>
          </mxGeometry>
        </mxCell>
        <mxCell id="m9i3XkskpPUT0IzI7ZGU-45" value="team1_score" style="ellipse;whiteSpace=wrap;html=1;" vertex="1" parent="1">
          <mxGeometry x="990" y="835" width="80" height="25" as="geometry" />
        </mxCell>
        <mxCell id="m9i3XkskpPUT0IzI7ZGU-52" style="edgeStyle=orthogonalEdgeStyle;rounded=0;orthogonalLoop=1;jettySize=auto;html=1;entryX=1;entryY=0.25;entryDx=0;entryDy=0;endArrow=none;endFill=0;" edge="1" parent="1" source="m9i3XkskpPUT0IzI7ZGU-46" target="50zjh5lBp7zg26SEbjsQ-4">
          <mxGeometry relative="1" as="geometry" />
        </mxCell>
        <mxCell id="m9i3XkskpPUT0IzI7ZGU-46" value="team2_score" style="ellipse;whiteSpace=wrap;html=1;" vertex="1" parent="1">
          <mxGeometry x="1000" y="870" width="80" height="25" as="geometry" />
        </mxCell>
        <mxCell id="m9i3XkskpPUT0IzI7ZGU-53" style="edgeStyle=orthogonalEdgeStyle;rounded=0;orthogonalLoop=1;jettySize=auto;html=1;entryX=1;entryY=0.5;entryDx=0;entryDy=0;endArrow=none;endFill=0;" edge="1" parent="1" source="m9i3XkskpPUT0IzI7ZGU-47" target="50zjh5lBp7zg26SEbjsQ-4">
          <mxGeometry relative="1" as="geometry" />
        </mxCell>
        <mxCell id="m9i3XkskpPUT0IzI7ZGU-47" value="match_date" style="ellipse;whiteSpace=wrap;html=1;" vertex="1" parent="1">
          <mxGeometry x="990" y="915" width="80" height="25" as="geometry" />
        </mxCell>
        <mxCell id="m9i3XkskpPUT0IzI7ZGU-48" value="result" style="ellipse;whiteSpace=wrap;html=1;" vertex="1" parent="1">
          <mxGeometry x="920" y="990" width="50" height="25" as="geometry" />
        </mxCell>
        <mxCell id="m9i3XkskpPUT0IzI7ZGU-49" value="referee" style="ellipse;whiteSpace=wrap;html=1;" vertex="1" parent="1">
          <mxGeometry x="860" y="990" width="50" height="25" as="geometry" />
        </mxCell>
        <mxCell id="m9i3XkskpPUT0IzI7ZGU-54" style="edgeStyle=orthogonalEdgeStyle;rounded=0;orthogonalLoop=1;jettySize=auto;html=1;entryX=1;entryY=0.75;entryDx=0;entryDy=0;endArrow=none;endFill=0;" edge="1" parent="1" source="m9i3XkskpPUT0IzI7ZGU-50" target="50zjh5lBp7zg26SEbjsQ-4">
          <mxGeometry relative="1" as="geometry">
            <Array as="points">
              <mxPoint x="960" y="978" />
              <mxPoint x="960" y="920" />
            </Array>
          </mxGeometry>
        </mxCell>
        <mxCell id="m9i3XkskpPUT0IzI7ZGU-50" value="is_finished" style="ellipse;whiteSpace=wrap;html=1;" vertex="1" parent="1">
          <mxGeometry x="980" y="965" width="80" height="25" as="geometry" />
        </mxCell>
        <mxCell id="m9i3XkskpPUT0IzI7ZGU-55" style="edgeStyle=orthogonalEdgeStyle;rounded=0;orthogonalLoop=1;jettySize=auto;html=1;endArrow=none;endFill=0;" edge="1" parent="1" source="m9i3XkskpPUT0IzI7ZGU-49">
          <mxGeometry relative="1" as="geometry">
            <mxPoint x="913" y="930" as="targetPoint" />
            <Array as="points">
              <mxPoint x="885" y="970" />
              <mxPoint x="913" y="970" />
            </Array>
          </mxGeometry>
        </mxCell>
        <mxCell id="m9i3XkskpPUT0IzI7ZGU-56" style="edgeStyle=orthogonalEdgeStyle;rounded=0;orthogonalLoop=1;jettySize=auto;html=1;entryX=0.814;entryY=0.997;entryDx=0;entryDy=0;entryPerimeter=0;endArrow=none;endFill=0;" edge="1" parent="1" source="m9i3XkskpPUT0IzI7ZGU-48" target="50zjh5lBp7zg26SEbjsQ-4">
          <mxGeometry relative="1" as="geometry" />
        </mxCell>
        <mxCell id="m9i3XkskpPUT0IzI7ZGU-59" style="edgeStyle=orthogonalEdgeStyle;rounded=0;orthogonalLoop=1;jettySize=auto;html=1;entryX=1;entryY=0.25;entryDx=0;entryDy=0;endArrow=none;endFill=0;" edge="1" parent="1" source="m9i3XkskpPUT0IzI7ZGU-57" target="50zjh5lBp7zg26SEbjsQ-3">
          <mxGeometry relative="1" as="geometry" />
        </mxCell>
        <mxCell id="m9i3XkskpPUT0IzI7ZGU-57" value="type" style="ellipse;whiteSpace=wrap;html=1;" vertex="1" parent="1">
          <mxGeometry x="840" y="665" width="50" height="25" as="geometry" />
        </mxCell>
        <mxCell id="m9i3XkskpPUT0IzI7ZGU-58" value="time" style="ellipse;whiteSpace=wrap;html=1;" vertex="1" parent="1">
          <mxGeometry x="840" y="705" width="50" height="25" as="geometry" />
        </mxCell>
        <mxCell id="m9i3XkskpPUT0IzI7ZGU-60" style="edgeStyle=orthogonalEdgeStyle;rounded=0;orthogonalLoop=1;jettySize=auto;html=1;endArrow=none;endFill=0;entryX=1;entryY=0.5;entryDx=0;entryDy=0;" edge="1" parent="1" source="m9i3XkskpPUT0IzI7ZGU-58" target="50zjh5lBp7zg26SEbjsQ-3">
          <mxGeometry relative="1" as="geometry">
            <mxPoint x="820" y="720" as="targetPoint" />
            <Array as="points">
              <mxPoint x="820" y="718" />
              <mxPoint x="820" y="700" />
            </Array>
          </mxGeometry>
        </mxCell>
        <mxCell id="m9i3XkskpPUT0IzI7ZGU-63" style="edgeStyle=orthogonalEdgeStyle;rounded=0;orthogonalLoop=1;jettySize=auto;html=1;entryX=0;entryY=0.25;entryDx=0;entryDy=0;exitX=0.5;exitY=1;exitDx=0;exitDy=0;endArrow=none;endFill=0;" edge="1" parent="1" source="m9i3XkskpPUT0IzI7ZGU-61" target="50zjh5lBp7zg26SEbjsQ-1">
          <mxGeometry relative="1" as="geometry">
            <Array as="points">
              <mxPoint x="465" y="700" />
            </Array>
          </mxGeometry>
        </mxCell>
        <mxCell id="m9i3XkskpPUT0IzI7ZGU-61" value="name" style="ellipse;whiteSpace=wrap;html=1;" vertex="1" parent="1">
          <mxGeometry x="440" y="660" width="50" height="20" as="geometry" />
        </mxCell>
        <mxCell id="m9i3XkskpPUT0IzI7ZGU-64" style="edgeStyle=orthogonalEdgeStyle;rounded=0;orthogonalLoop=1;jettySize=auto;html=1;entryX=0.25;entryY=0;entryDx=0;entryDy=0;endArrow=none;endFill=0;" edge="1" parent="1" source="m9i3XkskpPUT0IzI7ZGU-62" target="50zjh5lBp7zg26SEbjsQ-1">
          <mxGeometry relative="1" as="geometry">
            <Array as="points">
              <mxPoint x="515" y="680" />
              <mxPoint x="545" y="680" />
            </Array>
          </mxGeometry>
        </mxCell>
        <mxCell id="m9i3XkskpPUT0IzI7ZGU-62" value="logo" style="ellipse;whiteSpace=wrap;html=1;" vertex="1" parent="1">
          <mxGeometry x="490" y="645" width="50" height="20" as="geometry" />
        </mxCell>
        <mxCell id="m9i3XkskpPUT0IzI7ZGU-75" style="edgeStyle=orthogonalEdgeStyle;rounded=0;orthogonalLoop=1;jettySize=auto;html=1;endArrow=none;endFill=0;entryX=0.355;entryY=0.007;entryDx=0;entryDy=0;entryPerimeter=0;" edge="1" parent="1" source="m9i3XkskpPUT0IzI7ZGU-66" target="50zjh5lBp7zg26SEbjsQ-2">
          <mxGeometry relative="1" as="geometry" />
        </mxCell>
        <mxCell id="m9i3XkskpPUT0IzI7ZGU-66" value="name" style="ellipse;whiteSpace=wrap;html=1;" vertex="1" parent="1">
          <mxGeometry x="555" y="390" width="50" height="20" as="geometry" />
        </mxCell>
        <mxCell id="m9i3XkskpPUT0IzI7ZGU-76" style="edgeStyle=orthogonalEdgeStyle;rounded=0;orthogonalLoop=1;jettySize=auto;html=1;entryX=0.5;entryY=0;entryDx=0;entryDy=0;endArrow=none;endFill=0;" edge="1" parent="1" source="m9i3XkskpPUT0IzI7ZGU-67" target="50zjh5lBp7zg26SEbjsQ-2">
          <mxGeometry relative="1" as="geometry" />
        </mxCell>
        <mxCell id="m9i3XkskpPUT0IzI7ZGU-67" value="surname" style="ellipse;whiteSpace=wrap;html=1;" vertex="1" parent="1">
          <mxGeometry x="590" y="410" width="60" height="30" as="geometry" />
        </mxCell>
        <mxCell id="m9i3XkskpPUT0IzI7ZGU-77" style="edgeStyle=orthogonalEdgeStyle;rounded=0;orthogonalLoop=1;jettySize=auto;html=1;entryX=0.75;entryY=0;entryDx=0;entryDy=0;endArrow=none;endFill=0;exitX=0;exitY=0.5;exitDx=0;exitDy=0;" edge="1" parent="1" source="m9i3XkskpPUT0IzI7ZGU-68" target="50zjh5lBp7zg26SEbjsQ-2">
          <mxGeometry relative="1" as="geometry">
            <Array as="points">
              <mxPoint x="640" y="480" />
              <mxPoint x="595" y="480" />
            </Array>
          </mxGeometry>
        </mxCell>
        <mxCell id="m9i3XkskpPUT0IzI7ZGU-68" value="position" style="ellipse;whiteSpace=wrap;html=1;" vertex="1" parent="1">
          <mxGeometry x="650" y="450" width="60" height="30" as="geometry" />
        </mxCell>
        <mxCell id="m9i3XkskpPUT0IzI7ZGU-74" style="edgeStyle=orthogonalEdgeStyle;rounded=0;orthogonalLoop=1;jettySize=auto;html=1;entryX=0;entryY=0.5;entryDx=0;entryDy=0;endArrow=none;endFill=0;" edge="1" parent="1" source="m9i3XkskpPUT0IzI7ZGU-69" target="50zjh5lBp7zg26SEbjsQ-2">
          <mxGeometry relative="1" as="geometry">
            <Array as="points">
              <mxPoint x="510" y="540" />
              <mxPoint x="510" y="520" />
            </Array>
          </mxGeometry>
        </mxCell>
        <mxCell id="m9i3XkskpPUT0IzI7ZGU-69" value="position" style="ellipse;whiteSpace=wrap;html=1;" vertex="1" parent="1">
          <mxGeometry x="435" y="525" width="60" height="30" as="geometry" />
        </mxCell>
        <mxCell id="m9i3XkskpPUT0IzI7ZGU-72" style="edgeStyle=orthogonalEdgeStyle;rounded=0;orthogonalLoop=1;jettySize=auto;html=1;entryX=0.097;entryY=0.014;entryDx=0;entryDy=0;entryPerimeter=0;endArrow=none;endFill=0;" edge="1" parent="1" source="m9i3XkskpPUT0IzI7ZGU-70" target="50zjh5lBp7zg26SEbjsQ-2">
          <mxGeometry relative="1" as="geometry" />
        </mxCell>
        <mxCell id="m9i3XkskpPUT0IzI7ZGU-70" value="medical_cert" style="ellipse;whiteSpace=wrap;html=1;" vertex="1" parent="1">
          <mxGeometry x="425" y="450" width="80" height="30" as="geometry" />
        </mxCell>
        <mxCell id="m9i3XkskpPUT0IzI7ZGU-73" style="edgeStyle=orthogonalEdgeStyle;rounded=0;orthogonalLoop=1;jettySize=auto;html=1;endArrow=none;endFill=0;entryX=0;entryY=0.25;entryDx=0;entryDy=0;" edge="1" parent="1" source="m9i3XkskpPUT0IzI7ZGU-71" target="50zjh5lBp7zg26SEbjsQ-2">
          <mxGeometry relative="1" as="geometry">
            <mxPoint x="520" y="505" as="targetPoint" />
          </mxGeometry>
        </mxCell>
        <mxCell id="m9i3XkskpPUT0IzI7ZGU-71" value="date_of_birth" style="ellipse;whiteSpace=wrap;html=1;" vertex="1" parent="1">
          <mxGeometry x="380" y="490" width="80" height="30" as="geometry" />
        </mxCell>
      </root>
    </mxGraphModel>
  </diagram>
</mxfile>
